<mxfile host="app.diagrams.net" modified="2023-04-24T06:03:44.583Z" agent="Mozilla/5.0 (Windows NT 10.0; Win64; x64) AppleWebKit/537.36 (KHTML, like Gecko) Chrome/112.0.0.0 Safari/537.36" etag="bMR8ahqVXAd7z5Mx2tSw" version="21.2.1" type="github">
  <diagram id="C5RBs43oDa-KdzZeNtuy" name="Page-1">
    <mxGraphModel dx="1018" dy="540" grid="1" gridSize="10" guides="1" tooltips="1" connect="1" arrows="1" fold="1" page="1" pageScale="1" pageWidth="827" pageHeight="1169" math="0" shadow="0">
      <root>
        <mxCell id="WIyWlLk6GJQsqaUBKTNV-0" />
        <mxCell id="WIyWlLk6GJQsqaUBKTNV-1" parent="WIyWlLk6GJQsqaUBKTNV-0" />
        <mxCell id="5kSyUArIg9FBRHnEeejd-0" value="Advance Search" style="swimlane;childLayout=stackLayout;resizeParent=1;resizeParentMax=0;horizontal=1;startSize=30;horizontalStack=0;html=1;" vertex="1" parent="WIyWlLk6GJQsqaUBKTNV-1">
          <mxGeometry x="173" y="470" width="520" height="579" as="geometry" />
        </mxCell>
        <mxCell id="5kSyUArIg9FBRHnEeejd-1" value="Host Mobile User" style="swimlane;startSize=30;horizontal=0;html=1;" vertex="1" parent="5kSyUArIg9FBRHnEeejd-0">
          <mxGeometry y="30" width="520" height="120" as="geometry" />
        </mxCell>
        <mxCell id="5kSyUArIg9FBRHnEeejd-7" value="START" style="strokeWidth=2;html=1;shape=mxgraph.flowchart.start_2;whiteSpace=wrap;" vertex="1" parent="5kSyUArIg9FBRHnEeejd-1">
          <mxGeometry x="76" y="30" width="40" height="40" as="geometry" />
        </mxCell>
        <mxCell id="5kSyUArIg9FBRHnEeejd-10" value="&lt;font style=&quot;font-size: 11px;&quot;&gt;&lt;font style=&quot;font-size: 11px;&quot;&gt;&lt;b style=&quot;font-size: 11px;&quot;&gt;Filter Condition:&lt;/b&gt;&lt;/font&gt;&lt;br style=&quot;font-size: 11px;&quot;&gt;&lt;span style=&quot;font-size: 11px;&quot;&gt;1.First Name&lt;/span&gt;&lt;br style=&quot;font-size: 11px;&quot;&gt;&lt;span style=&quot;font-size: 11px;&quot;&gt;2.Last Name&lt;/span&gt;&lt;br style=&quot;font-size: 11px;&quot;&gt;&lt;span style=&quot;font-size: 11px;&quot;&gt;3.Date of Birth&lt;/span&gt;&lt;br style=&quot;font-size: 11px;&quot;&gt;&lt;span style=&quot;font-size: 11px;&quot;&gt;4.Phone Number&lt;/span&gt;&lt;br style=&quot;font-size: 11px;&quot;&gt;&lt;span style=&quot;font-size: 11px;&quot;&gt;5.Passport ID&lt;/span&gt;&lt;/font&gt;" style="strokeWidth=1;html=1;shape=mxgraph.flowchart.document2;whiteSpace=wrap;size=0.25;fillColor=#fff2cc;strokeColor=#d6b656;align=left;" vertex="1" parent="5kSyUArIg9FBRHnEeejd-1">
          <mxGeometry x="167" y="10" width="113" height="100" as="geometry" />
        </mxCell>
        <mxCell id="5kSyUArIg9FBRHnEeejd-11" value="" style="endArrow=none;dashed=1;html=1;dashPattern=1 3;strokeWidth=2;rounded=0;" edge="1" parent="5kSyUArIg9FBRHnEeejd-1">
          <mxGeometry width="50" height="50" relative="1" as="geometry">
            <mxPoint x="127" y="90" as="sourcePoint" />
            <mxPoint x="167" y="50" as="targetPoint" />
          </mxGeometry>
        </mxCell>
        <mxCell id="5kSyUArIg9FBRHnEeejd-9" value="Search Patron by Filter" style="edgeStyle=orthogonalEdgeStyle;rounded=0;orthogonalLoop=1;jettySize=auto;html=1;" edge="1" parent="5kSyUArIg9FBRHnEeejd-0" source="5kSyUArIg9FBRHnEeejd-7" target="5kSyUArIg9FBRHnEeejd-8">
          <mxGeometry x="-0.3333" relative="1" as="geometry">
            <mxPoint as="offset" />
          </mxGeometry>
        </mxCell>
        <mxCell id="5kSyUArIg9FBRHnEeejd-2" value="Host Mobile App" style="swimlane;startSize=30;horizontal=0;html=1;" vertex="1" parent="5kSyUArIg9FBRHnEeejd-0">
          <mxGeometry y="150" width="520" height="429" as="geometry">
            <mxRectangle y="140" width="480" height="30" as="alternateBounds" />
          </mxGeometry>
        </mxCell>
        <mxCell id="5kSyUArIg9FBRHnEeejd-13" value="" style="edgeStyle=orthogonalEdgeStyle;rounded=0;orthogonalLoop=1;jettySize=auto;html=1;" edge="1" parent="5kSyUArIg9FBRHnEeejd-2" source="5kSyUArIg9FBRHnEeejd-8" target="5kSyUArIg9FBRHnEeejd-12">
          <mxGeometry relative="1" as="geometry" />
        </mxCell>
        <mxCell id="5kSyUArIg9FBRHnEeejd-14" value="N" style="edgeLabel;html=1;align=center;verticalAlign=middle;resizable=0;points=[];" vertex="1" connectable="0" parent="5kSyUArIg9FBRHnEeejd-13">
          <mxGeometry x="-0.8557" y="2" relative="1" as="geometry">
            <mxPoint as="offset" />
          </mxGeometry>
        </mxCell>
        <mxCell id="5kSyUArIg9FBRHnEeejd-16" value="Y" style="edgeStyle=orthogonalEdgeStyle;rounded=0;orthogonalLoop=1;jettySize=auto;html=1;" edge="1" parent="5kSyUArIg9FBRHnEeejd-2" source="5kSyUArIg9FBRHnEeejd-8" target="5kSyUArIg9FBRHnEeejd-15">
          <mxGeometry relative="1" as="geometry" />
        </mxCell>
        <mxCell id="5kSyUArIg9FBRHnEeejd-8" value="Inside Macau?" style="rhombus;whiteSpace=wrap;html=1;shadow=0;fontFamily=Helvetica;fontSize=12;align=center;strokeWidth=1;spacing=6;spacingTop=-4;" vertex="1" parent="5kSyUArIg9FBRHnEeejd-2">
          <mxGeometry x="46" y="20" width="100" height="40" as="geometry" />
        </mxCell>
        <mxCell id="5kSyUArIg9FBRHnEeejd-31" value="" style="edgeStyle=orthogonalEdgeStyle;rounded=0;orthogonalLoop=1;jettySize=auto;html=1;" edge="1" parent="5kSyUArIg9FBRHnEeejd-2" source="5kSyUArIg9FBRHnEeejd-12">
          <mxGeometry relative="1" as="geometry">
            <mxPoint x="254" y="375" as="targetPoint" />
          </mxGeometry>
        </mxCell>
        <mxCell id="5kSyUArIg9FBRHnEeejd-12" value="Logout the user" style="rounded=1;whiteSpace=wrap;html=1;fontSize=12;glass=0;strokeWidth=1;shadow=0;" vertex="1" parent="5kSyUArIg9FBRHnEeejd-2">
          <mxGeometry x="417" y="360" width="97" height="30" as="geometry" />
        </mxCell>
        <mxCell id="5kSyUArIg9FBRHnEeejd-18" value="" style="edgeStyle=orthogonalEdgeStyle;rounded=0;orthogonalLoop=1;jettySize=auto;html=1;" edge="1" parent="5kSyUArIg9FBRHnEeejd-2" source="5kSyUArIg9FBRHnEeejd-15" target="5kSyUArIg9FBRHnEeejd-17">
          <mxGeometry relative="1" as="geometry" />
        </mxCell>
        <mxCell id="5kSyUArIg9FBRHnEeejd-19" value="N" style="edgeLabel;html=1;align=center;verticalAlign=middle;resizable=0;points=[];" vertex="1" connectable="0" parent="5kSyUArIg9FBRHnEeejd-18">
          <mxGeometry x="-0.6673" y="1" relative="1" as="geometry">
            <mxPoint as="offset" />
          </mxGeometry>
        </mxCell>
        <mxCell id="5kSyUArIg9FBRHnEeejd-23" value="Y" style="edgeStyle=orthogonalEdgeStyle;rounded=0;orthogonalLoop=1;jettySize=auto;html=1;" edge="1" parent="5kSyUArIg9FBRHnEeejd-2" source="5kSyUArIg9FBRHnEeejd-15" target="5kSyUArIg9FBRHnEeejd-22">
          <mxGeometry relative="1" as="geometry">
            <Array as="points">
              <mxPoint x="96" y="140" />
              <mxPoint x="96" y="140" />
            </Array>
          </mxGeometry>
        </mxCell>
        <mxCell id="5kSyUArIg9FBRHnEeejd-15" value="On Property?" style="rhombus;whiteSpace=wrap;html=1;shadow=0;fontFamily=Helvetica;fontSize=12;align=center;strokeWidth=1;spacing=6;spacingTop=-4;" vertex="1" parent="5kSyUArIg9FBRHnEeejd-2">
          <mxGeometry x="46" y="90" width="100" height="40" as="geometry" />
        </mxCell>
        <mxCell id="5kSyUArIg9FBRHnEeejd-35" value="" style="edgeStyle=orthogonalEdgeStyle;rounded=0;orthogonalLoop=1;jettySize=auto;html=1;endArrow=none;endFill=0;" edge="1" parent="5kSyUArIg9FBRHnEeejd-2" source="5kSyUArIg9FBRHnEeejd-17">
          <mxGeometry relative="1" as="geometry">
            <mxPoint x="357" y="376" as="targetPoint" />
          </mxGeometry>
        </mxCell>
        <mxCell id="5kSyUArIg9FBRHnEeejd-17" value="Display Fail Message" style="rounded=1;whiteSpace=wrap;html=1;fontSize=12;glass=0;strokeWidth=1;shadow=0;" vertex="1" parent="5kSyUArIg9FBRHnEeejd-2">
          <mxGeometry x="308.5" y="259" width="97" height="40" as="geometry" />
        </mxCell>
        <mxCell id="5kSyUArIg9FBRHnEeejd-33" value="" style="edgeStyle=orthogonalEdgeStyle;rounded=0;orthogonalLoop=1;jettySize=auto;html=1;" edge="1" parent="5kSyUArIg9FBRHnEeejd-2" source="5kSyUArIg9FBRHnEeejd-20" target="5kSyUArIg9FBRHnEeejd-29">
          <mxGeometry relative="1" as="geometry" />
        </mxCell>
        <mxCell id="5kSyUArIg9FBRHnEeejd-20" value="Display Search Result" style="rounded=1;whiteSpace=wrap;html=1;fontSize=12;glass=0;strokeWidth=1;shadow=0;" vertex="1" parent="5kSyUArIg9FBRHnEeejd-2">
          <mxGeometry x="192" y="260" width="97" height="40" as="geometry" />
        </mxCell>
        <mxCell id="5kSyUArIg9FBRHnEeejd-32" value="" style="edgeStyle=orthogonalEdgeStyle;rounded=0;orthogonalLoop=1;jettySize=auto;html=1;" edge="1" parent="5kSyUArIg9FBRHnEeejd-2" source="5kSyUArIg9FBRHnEeejd-21" target="5kSyUArIg9FBRHnEeejd-29">
          <mxGeometry relative="1" as="geometry" />
        </mxCell>
        <mxCell id="5kSyUArIg9FBRHnEeejd-21" value="Display Patron Not Found" style="rounded=1;whiteSpace=wrap;html=1;fontSize=12;glass=0;strokeWidth=1;shadow=0;" vertex="1" parent="5kSyUArIg9FBRHnEeejd-2">
          <mxGeometry x="47.5" y="354" width="97" height="40" as="geometry" />
        </mxCell>
        <mxCell id="5kSyUArIg9FBRHnEeejd-25" value="" style="edgeStyle=orthogonalEdgeStyle;rounded=0;orthogonalLoop=1;jettySize=auto;html=1;" edge="1" parent="5kSyUArIg9FBRHnEeejd-2" source="5kSyUArIg9FBRHnEeejd-22" target="5kSyUArIg9FBRHnEeejd-24">
          <mxGeometry relative="1" as="geometry" />
        </mxCell>
        <mxCell id="5kSyUArIg9FBRHnEeejd-22" value="Search the patrons by filter exclude VVIP" style="rounded=1;whiteSpace=wrap;html=1;fontSize=12;glass=0;strokeWidth=1;shadow=0;" vertex="1" parent="5kSyUArIg9FBRHnEeejd-2">
          <mxGeometry x="46" y="172" width="99" height="50" as="geometry" />
        </mxCell>
        <mxCell id="5kSyUArIg9FBRHnEeejd-26" value="Y" style="edgeStyle=orthogonalEdgeStyle;rounded=0;orthogonalLoop=1;jettySize=auto;html=1;" edge="1" parent="5kSyUArIg9FBRHnEeejd-2" source="5kSyUArIg9FBRHnEeejd-24" target="5kSyUArIg9FBRHnEeejd-20">
          <mxGeometry relative="1" as="geometry" />
        </mxCell>
        <mxCell id="5kSyUArIg9FBRHnEeejd-27" value="N" style="edgeStyle=orthogonalEdgeStyle;rounded=0;orthogonalLoop=1;jettySize=auto;html=1;" edge="1" parent="5kSyUArIg9FBRHnEeejd-2" source="5kSyUArIg9FBRHnEeejd-24" target="5kSyUArIg9FBRHnEeejd-21">
          <mxGeometry relative="1" as="geometry" />
        </mxCell>
        <mxCell id="5kSyUArIg9FBRHnEeejd-24" value="Has Match Records?" style="rhombus;whiteSpace=wrap;html=1;shadow=0;fontFamily=Helvetica;fontSize=12;align=center;strokeWidth=1;spacing=6;spacingTop=-4;" vertex="1" parent="5kSyUArIg9FBRHnEeejd-2">
          <mxGeometry x="46" y="260" width="100" height="40" as="geometry" />
        </mxCell>
        <mxCell id="5kSyUArIg9FBRHnEeejd-29" value="END" style="strokeWidth=2;html=1;shape=mxgraph.flowchart.terminator;whiteSpace=wrap;" vertex="1" parent="5kSyUArIg9FBRHnEeejd-2">
          <mxGeometry x="217" y="359" width="47" height="30" as="geometry" />
        </mxCell>
      </root>
    </mxGraphModel>
  </diagram>
</mxfile>
